<?xml version="1.0" encoding="UTF-8"?>
<!-- Generated by Pixelmator Pro 3.3.11 -->
<svg width="1000" height="1000" viewBox="0 0 1000 1000" xmlns="http://www.w3.org/2000/svg">
    <g id="Group">
        <radialGradient id="radialGradient1" cx="967.710028" cy="468.712458" r="638.943297" fx="967.710028" fy="468.712458" gradientUnits="userSpaceOnUse">
            <stop offset="1e-05" stop-color="#ff005f" stop-opacity="1"/>
            <stop offset="1" stop-color="#fc01d8" stop-opacity="1"/>
        </radialGradient>
        <path id="Path" fill="url(#radialGradient1)" stroke="none" d="M 500.163086 0 C 291.417877 0 230.367554 0.215454 218.50058 1.200012 C 175.662643 4.761841 149.006363 11.508667 119.965233 25.971008 C 97.585159 37.087769 79.934364 49.973267 62.514515 68.036438 C 30.789917 100.977661 11.562716 141.504028 4.602343 189.67749 C 1.218525 213.064087 0.233965 217.833496 0.03402 337.289978 C -0.042712 377.108826 0.03402 429.513123 0.03402 499.80365 C 0.03402 708.436646 0.26456 769.441956 1.264633 781.289307 C 4.725557 822.985107 11.262625 849.218018 25.106266 877.912903 C 51.562962 932.840454 102.091484 974.074646 161.619049 989.460815 C 182.230698 994.768738 204.99556 997.6922 234.220779 999.07666 C 246.603271 999.615234 372.810028 1000 499.093872 1000 C 625.378113 1000 751.661926 999.84613 763.736389 999.230896 C 797.576477 997.638123 817.226563 994.999695 838.953247 989.383667 C 898.865112 973.920898 948.471436 933.301941 975.465942 877.604919 C 989.040588 849.602417 995.923828 822.369385 999.038879 782.850586 C 999.715332 774.234741 1000 636.86145 1000 499.673248 C 1000 362.461243 999.692383 225.341919 999.015442 216.725708 C 995.862122 176.568604 988.978821 149.566528 974.966309 121.025391 C 963.468567 97.661865 950.70166 80.21405 932.16687 62.374695 C 899.088501 30.77179 858.634277 11.539246 810.427979 4.584961 C 787.070435 1.207581 782.417847 0.20752 662.901672 0 Z"/>
        <radialGradient id="radialGradient2" cx="265.617278" cy="1077.020344" r="798.218916" fx="265.617278" fy="1077.020344" gradientUnits="userSpaceOnUse">
            <stop offset="1e-05" stop-color="#ffcc00" stop-opacity="1"/>
            <stop offset="0.1242" stop-color="#ffcc00" stop-opacity="1"/>
            <stop offset="0.5672" stop-color="#fe4a05" stop-opacity="1"/>
            <stop offset="0.6942" stop-color="#ff0f3f" stop-opacity="1"/>
            <stop offset="1" stop-color="#fe0657" stop-opacity="0"/>
        </radialGradient>
        <path id="path1" fill="url(#radialGradient2)" stroke="none" d="M 500.163086 0 C 291.417877 0 230.367554 0.215454 218.50058 1.200012 C 175.662643 4.761841 149.006363 11.508667 119.965233 25.971008 C 97.585159 37.087769 79.934364 49.973267 62.514515 68.036438 C 30.789917 100.977661 11.562716 141.504028 4.602343 189.67749 C 1.218525 213.064087 0.233965 217.833496 0.03402 337.289978 C -0.042712 377.108826 0.03402 429.513123 0.03402 499.80365 C 0.03402 708.436646 0.26456 769.441956 1.264633 781.289307 C 4.725557 822.985107 11.262625 849.218018 25.106266 877.912903 C 51.562962 932.840454 102.091484 974.074646 161.619049 989.460815 C 182.230698 994.768738 204.99556 997.6922 234.220779 999.07666 C 246.603271 999.615234 372.810028 1000 499.093872 1000 C 625.378113 1000 751.661926 999.84613 763.736389 999.230896 C 797.576477 997.638123 817.226563 994.999695 838.953247 989.383667 C 898.865112 973.920898 948.471436 933.301941 975.465942 877.604919 C 989.040588 849.602417 995.923828 822.369385 999.038879 782.850586 C 999.715332 774.234741 1000 636.86145 1000 499.673248 C 1000 362.461243 999.692383 225.341919 999.015442 216.725708 C 995.862122 176.568604 988.978821 149.566528 974.966309 121.025391 C 963.468567 97.661865 950.70166 80.21405 932.16687 62.374695 C 899.088501 30.77179 858.634277 11.539246 810.427979 4.584961 C 787.070435 1.207581 782.417847 0.20752 662.901672 0 Z"/>
        <radialGradient id="radialGradient3" cx="525.269351" cy="985.897227" r="330.070502" fx="525.269351" fy="985.897227" gradientUnits="userSpaceOnUse">
            <stop offset="1e-05" stop-color="#ffcc00" stop-opacity="1"/>
            <stop offset="1" stop-color="#ffcc00" stop-opacity="0"/>
        </radialGradient>
        <path id="path2" fill="url(#radialGradient3)" stroke="none" d="M 500.163086 0 C 291.417877 0 230.367554 0.215454 218.50058 1.200012 C 175.662643 4.761841 149.006363 11.508667 119.965233 25.971008 C 97.585159 37.087769 79.934364 49.973267 62.514515 68.036438 C 30.789917 100.977661 11.562716 141.504028 4.602343 189.67749 C 1.218525 213.064087 0.233965 217.833496 0.03402 337.289978 C -0.042712 377.108826 0.03402 429.513123 0.03402 499.80365 C 0.03402 708.436646 0.26456 769.441956 1.264633 781.289307 C 4.725557 822.985107 11.262625 849.218018 25.106266 877.912903 C 51.562962 932.840454 102.091484 974.074646 161.619049 989.460815 C 182.230698 994.768738 204.99556 997.6922 234.220779 999.07666 C 246.603271 999.615234 372.810028 1000 499.093872 1000 C 625.378113 1000 751.661926 999.84613 763.736389 999.230896 C 797.576477 997.638123 817.226563 994.999695 838.953247 989.383667 C 898.865112 973.920898 948.471436 933.301941 975.465942 877.604919 C 989.040588 849.602417 995.923828 822.369385 999.038879 782.850586 C 999.715332 774.234741 1000 636.86145 1000 499.673248 C 1000 362.461243 999.692383 225.341919 999.015442 216.725708 C 995.862122 176.568604 988.978821 149.566528 974.966309 121.025391 C 963.468567 97.661865 950.70166 80.21405 932.16687 62.374695 C 899.088501 30.77179 858.634277 11.539246 810.427979 4.584961 C 787.070435 1.207581 782.417847 0.20752 662.901672 0 Z"/>
        <path id="path3" fill="#334155" stroke="none" d="M 500.163086 0 C 291.417877 0 230.367554 0.215454 218.50058 1.200012 C 175.662643 4.761841 149.006363 11.508667 119.965233 25.971008 C 97.585159 37.087769 79.934364 49.973267 62.514515 68.036438 C 30.789917 100.977661 11.562716 141.504028 4.602343 189.67749 C 1.218525 213.064087 0.233965 217.833496 0.03402 337.289978 C -0.042712 377.108826 0.03402 429.513123 0.03402 499.80365 C 0.03402 708.436646 0.26456 769.441956 1.264633 781.289307 C 4.725557 822.985107 11.262625 849.218018 25.106266 877.912903 C 51.562962 932.840454 102.091484 974.074646 161.619049 989.460815 C 182.230698 994.768738 204.99556 997.6922 234.220779 999.07666 C 246.603271 999.615234 372.810028 1000 499.093872 1000 C 625.378113 1000 751.661926 999.84613 763.736389 999.230896 C 797.576477 997.638123 817.226563 994.999695 838.953247 989.383667 C 898.865112 973.920898 948.471436 933.301941 975.465942 877.604919 C 989.040588 849.602417 995.923828 822.369385 999.038879 782.850586 C 999.715332 774.234741 1000 636.86145 1000 499.673248 C 1000 362.461243 999.692383 225.341919 999.015442 216.725708 C 995.862122 176.568604 988.978821 149.566528 974.966309 121.025391 C 963.468567 97.661865 950.70166 80.21405 932.16687 62.374695 C 899.088501 30.77179 858.634277 11.539246 810.427979 4.584961 C 787.070435 1.207581 782.417847 0.20752 662.901672 0 Z"/>
        <path id="path4" fill="#ffffff" stroke="none" d="M 500.202393 128.401917 C 399.225891 128.401917 386.553497 128.842957 346.893799 130.646545 C 307.31192 132.457703 280.293976 138.719666 256.652985 147.907654 C 232.199081 157.396912 211.455139 170.090881 190.789063 190.74939 C 170.107483 211.400696 157.403732 232.128784 147.876297 256.557007 C 138.658401 280.18811 132.384018 307.193604 130.602737 346.730896 C 128.828979 386.360718 128.36412 399.031616 128.36412 499.933289 C 128.36412 600.835327 128.813507 613.459351 130.610291 653.089233 C 132.430893 692.641968 138.697342 719.639893 147.883865 743.263062 C 157.388245 767.69928 170.091614 788.427368 190.765625 809.078308 C 211.42453 829.744751 232.168091 842.470032 256.606506 851.95929 C 280.262604 861.146912 307.288849 867.408875 346.862793 869.220398 C 386.522522 871.023254 399.186951 871.464661 500.155914 871.464661 C 601.14032 871.464661 613.77417 871.02356 653.433533 869.219971 C 693.015747 867.408875 720.064758 861.146912 743.720764 851.958862 C 768.167175 842.470032 788.880127 829.744751 809.538635 809.078308 C 830.220215 788.427368 842.92395 767.69928 852.451416 743.270996 C 861.591431 719.639893 867.865845 692.634399 869.724976 653.097168 C 871.506226 613.467285 871.97113 600.834961 871.97113 499.933289 C 871.97113 399.03125 871.506226 386.368652 869.724976 346.738464 C 867.865845 307.185669 861.591431 280.18811 852.451416 256.564941 C 842.92395 232.128784 830.220215 211.40033 809.538635 190.74939 C 788.856689 170.082886 768.174683 157.388977 743.697754 147.907288 C 719.994812 138.719666 692.961304 132.457703 653.379517 130.646545 C 613.719788 128.842957 601.093872 128.401917 500.086365 128.401917 Z M 466.848083 195.355103 C 476.747803 195.3396 487.793427 195.355103 500.202393 195.355103 C 599.475098 195.355103 611.24115 195.711121 650.443542 197.491272 C 686.694885 199.147888 706.369629 205.200378 719.475891 210.285767 C 736.826965 217.019714 749.197327 225.069763 762.202698 238.073242 C 775.216003 251.077087 783.271667 263.461426 790.026428 280.799255 C 795.11554 293.880249 801.180603 313.540588 802.830322 349.765076 C 804.612 388.930481 804.99939 400.69574 804.99939 499.848236 C 804.99939 599.000366 804.612 610.766052 802.830322 649.931396 C 801.172607 686.155579 795.11554 705.815918 790.026428 718.896851 C 783.287537 736.235046 775.216003 748.580872 762.202698 761.576416 C 749.189758 774.5802 736.834473 782.629883 719.475891 789.363892 C 706.385132 794.472656 686.694885 800.509705 650.443542 802.166321 C 611.249084 803.946411 599.475098 804.333496 500.202393 804.333496 C 400.922119 804.333496 389.156097 803.946411 349.961243 802.166321 C 313.710297 800.494629 294.035553 794.44165 280.921356 789.356323 C 263.570282 782.622314 251.176468 774.572327 238.163559 761.568848 C 225.150269 748.56543 217.094589 736.212036 210.339813 718.865845 C 205.250671 705.784912 199.185654 686.124512 197.535904 649.900452 C 195.754227 610.73468 195.397827 598.969788 195.397827 499.75528 C 195.397827 400.541138 195.754227 388.837463 197.535904 349.672119 C 199.193604 313.447571 205.250671 293.787659 210.339813 280.691162 C 217.078705 263.352966 225.150269 250.968567 238.163559 237.965149 C 251.176468 224.961304 263.570282 216.911682 280.921356 210.16217 C 294.027618 205.053406 313.710297 199.016357 349.961243 197.351807 C 384.260468 195.803772 397.552673 195.3396 466.84845 195.26178 Z M 698.670349 257.044556 C 674.038025 257.044556 654.052979 276.991394 654.052979 301.612732 C 654.052979 326.226929 674.038025 346.196838 698.670349 346.196838 C 723.302246 346.196838 743.287292 326.226929 743.287292 301.612732 C 743.287292 276.998962 723.302246 257.029419 698.669922 257.029419 Z M 500.202393 309.136292 C 394.756195 309.136292 309.264038 394.565369 309.264038 499.933289 C 309.264038 605.30127 394.756195 690.691406 500.202393 690.691406 C 605.648621 690.691406 691.110168 605.30127 691.110168 499.933289 C 691.110168 394.565369 605.640991 309.136292 500.194824 309.136292 Z M 500.202393 376.089539 C 568.645813 376.089539 624.138367 431.532898 624.138367 499.933289 C 624.138367 568.326111 568.645813 623.7771 500.202393 623.7771 C 431.751373 623.7771 376.266754 568.326111 376.266754 499.933289 C 376.266754 431.532898 431.751373 376.089539 500.202393 376.089539 Z"/>
    </g>
</svg>
