<?xml version="1.0" encoding="UTF-8"?>
<!-- Generated by Pixelmator Pro 3.3.11 -->
<svg width="768" height="768" viewBox="0 0 768 768" xmlns="http://www.w3.org/2000/svg">
    <path id="Path" fill="#ffffff" stroke="none" d="M 100.320007 0 L 665.01001 0 C 718.800049 0 766.589966 46.710022 768 100.440063 L 768 665.160034 C 766.712036 721.484497 721.306763 766.810547 664.97998 768 L 100.5 768 C 45.101257 765.424072 1.171143 720.366211 0 664.920044 L 0 100.679993 C 1.289978 47.789978 47.429993 1.5 100.320007 0 Z M 150.51004 274.320007 C 150.120026 333.929993 150.329956 393.570007 150.030029 453.210022 C 150.504181 455.136383 150.043304 457.173706 148.786011 458.708405 C 147.528809 460.243011 145.62204 461.095825 143.640015 461.01004 C 136.469971 461.429993 129.269989 461.190033 122.070007 461.25 C 126.899963 473.25 132.120026 484.829956 137.519989 496.440033 C 151.079956 495.98996 166.559967 498.809967 178.140015 489.929993 C 188.550018 482.190033 191.879974 468.420044 191.670044 456.030029 C 191.670044 395.460022 191.670044 334.859985 191.399963 274.289978 C 177.780029 274.230011 164.129974 274.199982 150.51004 274.320007 Z M 318.75 271.620026 C 308.590027 294.959991 298.230042 318.199982 287.670044 341.339996 C 284.670044 348.269989 281.039978 357.449982 287.339996 363.719971 C 295.410004 371.039978 307.26004 368.219971 317.160004 368.879974 C 310.289978 386.219971 301.26004 402.690033 295.469971 420.449982 C 292.26004 429.210022 300.269989 438.120026 309.030029 438.210022 C 324.899963 439.289978 340.829956 438.210022 356.730011 438.629974 C 361.920044 427.019989 367.140015 415.440033 372.23996 403.769989 C 362.969971 403.769989 353.609985 404.429993 344.48996 402.600037 C 354.359985 377.820007 366.059967 353.850037 376.530029 329.370026 C 363.719971 327.870026 349.230011 332.039978 337.530029 327.059967 C 343.230011 307.859985 353.609985 290.25 360.929993 271.559967 C 346.829956 271.5 332.789978 271.410004 318.75 271.620026 Z M 537 271.769989 L 537 287.399963 C 527.820007 287.399963 518.640015 287.399963 509.460022 287.399963 C 509.460022 301.399963 509.460022 315.329987 509.460022 329.190033 C 518.670044 329.190033 527.850037 329.190033 537.030029 329.370026 C 537.27002 341.370026 537.27002 353.450012 537.030029 365.609985 C 523.22998 365.879974 509.399963 365.609985 495.600037 365.820007 C 495.420044 379.73996 495.449982 393.629974 495.600037 407.519989 C 509.429993 407.670044 523.289978 407.519989 537.119995 407.519989 C 537.119995 437.100037 537.119995 466.710022 537.119995 496.289978 C 550.97998 496.289978 564.809937 496.289978 578.670044 496.289978 C 578.670044 466.710022 578.670044 437.140015 578.670044 407.579956 C 598.890015 407.579956 619.079956 407.280029 639.300049 407.579956 C 646.410034 406.980011 654.539978 411.960022 654.300049 419.789978 C 654.85498 430.863007 654.85498 441.956909 654.300049 453.030029 C 654.522034 456.765656 651.675476 459.974762 647.940063 460.199982 C 636.390015 461.039978 624.809937 460.199982 613.22998 460.589996 C 618.329956 472.589996 623.280029 484.589996 629.070007 496.440033 C 648.119995 495.449982 671.399963 500.25 685.920044 484.440033 C 699.719971 471.660004 695.579956 451.440033 696.149963 434.76004 C 695.280029 417.210022 699.570007 397.379974 688.679993 382.019989 C 679.410034 369 662.699951 365.460022 647.640015 365.190033 C 646.73999 344.190033 651.75 319.620026 636.300049 302.550018 C 621.899963 286.410004 598.710022 286.350037 578.789978 287.129974 L 578.789978 271.530029 C 564.690063 271.679993 550.829956 271.710022 537 271.769989 Z M 388.73996 287.429993 C 388.73996 301.429993 388.73996 315.350006 388.73996 329.190033 C 397.440033 329.190033 406.109985 329.190033 414.809967 329.190033 C 414.809967 370.920044 414.809967 412.679993 414.809967 454.410004 C 402.359985 454.620026 389.879974 454.410004 377.429993 454.559967 C 370.980011 468.420044 364.679993 482.339996 358.410004 496.26004 C 404.850037 496.440033 451.410004 496.26004 497.730011 496.26004 C 497.730011 482.380035 497.730011 468.480011 497.730011 454.559967 C 484.379974 454.559967 471 454.559967 457.649963 454.410004 C 457.649963 412.649994 457.649963 370.880005 457.649963 329.100037 C 466.379974 329.100037 475.079956 329.100037 483.809967 329.100037 C 483.809967 315.179993 483.809967 301.230011 483.809967 287.309967 C 452.190033 287.370026 420.480011 287.309967 388.73996 287.429993 Z M 662.789978 291.269989 C 651.149963 300.089996 654.960022 316.230011 654.449951 328.800018 C 662.219971 328.800018 670.02002 329.219971 677.789978 328.530029 C 690.27002 327.390015 699.660034 312.839996 694.649963 301.079956 C 690.719971 288.179993 673.289978 282.570007 662.789978 291.269989 Z M 81 329.160004 C 78.899963 356.519989 76.769989 383.850037 74.789978 411.210022 C 74.330292 417.425903 72.997192 423.546021 70.829956 429.390015 C 77.850037 445.440033 84.870026 461.48996 92.370026 477.390015 C 109.170044 454.920044 115.410004 426.600037 117.149963 399.089996 C 118.620026 375.690033 121.230011 352.320007 122.070007 328.890015 C 108.300018 329.370026 94.620026 329.039978 81 329.160004 Z M 219.390015 329.160004 C 221.390015 354.540009 223.390015 379.910004 225.390015 405.269989 C 227.579956 430.710022 234.149963 456.629974 249.690033 477.269989 C 257.100037 461.399963 264.179993 445.379974 271.199982 429.269989 C 268.924713 423.414917 267.509949 417.260925 267 411 C 265.019989 383.730011 262.859985 356.460022 260.76004 329.190033 C 246.920013 329.110016 233.100006 329.100006 219.300018 329.160004 Z M 270.870026 493.230011 C 292.109985 499.5 314.609985 495.210022 336.420044 496.379974 C 342.839996 482.48996 349.230011 468.570007 355.469971 454.589996 C 333.660004 453.75 311.460022 456.870026 290.070007 451.379974 C 283.530029 465.279999 277.100037 479.230011 270.780029 493.230011 Z"/>
    <path id="path1" fill="#ffffff" stroke="none" d="M 578.309998 329.309967 C 587.309998 330.600037 599.309998 325.649963 606.179993 332.910004 C 607.320007 343.859985 606.480042 354.870026 606.600037 365.910004 C 597.27002 365.910004 587.910034 365.910004 578.579956 365.910004 C 578.399984 353.709991 578.309998 341.509979 578.309998 329.309967 Z"/>
    <path id="path2" fill="#334155" stroke="none" d="M 150.51004 274.320007 C 164.129974 274.320007 177.780029 274.320007 191.399963 274.320007 C 191.789978 334.890015 191.640015 395.48996 191.670044 456.059967 C 191.879974 468.449982 188.670044 482.219971 178.140015 489.960022 C 166.559967 498.960022 151.140015 495.960022 137.519989 496.469971 C 132.120026 484.859985 126.899963 473.160004 122.070007 461.280029 C 129.269989 461.280029 136.469971 461.460022 143.640015 461.039978 C 145.62204 461.125854 147.528809 460.273041 148.786011 458.738342 C 150.043304 457.203644 150.504181 455.166412 150.030029 453.23996 C 150.329956 393.570007 150 333.929993 150.51004 274.320007 Z"/>
    <path id="path3" fill="#334155" stroke="none" d="M 318.75 271.620026 C 332.789978 271.410004 346.829956 271.620026 360.75 271.620026 C 353.429993 290.309967 343.050018 307.920044 337.350037 327.120026 C 349.109985 332.100037 363.600037 327.929993 376.350037 329.429993 C 365.879974 353.910004 354.179993 377.879974 344.309967 402.660004 C 353.309967 404.48996 362.789978 403.829956 372.059967 403.829956 C 366.960022 415.5 361.73996 427.079956 356.550018 438.690033 C 340.649963 438.420044 324.719971 439.350037 308.850037 438.269989 C 300.089996 438.269989 292.079956 429.269989 295.289978 420.51004 C 301.079956 402.75 310.109985 386.280029 316.980011 368.940033 C 307.079956 368.280029 295.230011 371.100037 287.160004 363.780029 C 280.859985 357.51004 284.519989 348.329956 287.48996 341.399963 C 298.110016 318.200012 308.530029 294.940033 318.75 271.620026 Z"/>
    <path id="path4" fill="#334155" stroke="none" d="M 537 271.769989 C 550.829956 271.769989 564.690063 271.769989 578.52002 271.769989 L 578.52002 287.370026 C 598.440063 286.589996 621.630005 286.649963 636.030029 302.789978 C 651.480042 319.859985 646.469971 344.48996 647.370056 365.429993 C 662.370056 365.699982 679.140015 369.23996 688.410034 382.26004 C 699.300049 397.620026 695.010071 417.449982 695.880005 435 C 695.309998 451.710022 699.450012 471.899963 685.649963 484.679993 C 671.130005 500.370026 647.850037 495.570007 628.800049 496.679993 C 623.010071 484.949982 618.059998 472.859985 612.960022 460.829956 C 624.539978 460.5 636.120056 461.280029 647.670044 460.440033 C 651.405518 460.214813 654.252075 457.005615 654.030029 453.269989 C 654.585022 442.19696 654.585022 431.103058 654.030029 420.030029 C 654.23999 412.199982 646.109985 407.219971 639.030029 407.820007 C 618.809998 407.519989 598.620056 407.820007 578.399963 407.820007 C 578.399963 437.400024 578.399963 466.970032 578.399963 496.530029 C 564.539978 496.530029 550.710022 496.530029 536.850037 496.530029 C 536.850037 466.949982 536.850037 437.339996 536.850037 407.76004 C 523.02002 407.76004 509.160004 407.76004 495.329956 407.76004 C 495.329956 393.870026 495.329956 379.980011 495.329956 366.059967 C 509.129974 366.059967 522.960022 366.059967 536.760071 365.850037 C 537.019999 353.850037 537.019999 341.77002 536.760071 329.609985 C 527.579956 329.460022 518.399963 329.339996 509.190033 329.429993 C 509.190033 315.429993 509.190033 301.5 509.190033 287.640015 C 518.370056 287.640015 527.550049 287.640015 536.730042 287.640015 Z M 578.309998 329.309967 C 578.309998 341.509979 578.399984 353.709991 578.579956 365.910004 C 587.910034 365.910004 597.27002 365.910004 606.600037 365.910004 C 606.600037 354.929993 607.320007 343.920044 606.179993 332.910004 C 599.309998 325.649963 587.309998 330.600037 578.309998 329.309967 Z"/>
    <path id="path5" fill="#334155" stroke="none" d="M 388.73996 287.429993 C 420.480011 287.429993 452.190033 287.429993 483.899963 287.429993 C 483.899963 301.350037 483.899963 315.300018 483.899963 329.219971 C 475.170044 329.219971 466.469971 329.219971 457.73996 329.219971 C 457.73996 371 457.73996 412.77002 457.73996 454.530029 C 471.089996 454.679993 484.469971 454.530029 497.820007 454.679993 C 497.820007 468.559998 497.820007 482.459991 497.820007 496.379974 C 451.379974 496.379974 404.820007 496.379974 358.5 496.379974 C 364.769989 482.460022 371.070007 468.539978 377.519989 454.679993 C 389.969971 454.679993 402.449982 454.679993 414.899963 454.530029 C 414.899963 412.800018 414.899963 371.039978 414.899963 329.309967 C 406.199982 329.309967 397.530029 329.309967 388.829956 329.309967 C 388.709961 315.309967 388.679962 301.349976 388.73996 287.429993 Z"/>
    <path id="path6" fill="#334155" stroke="none" d="M 662.789978 291.269989 C 673.289978 282.570007 690.719971 288.269989 694.649963 301.079956 C 699.659973 312.839996 690.269958 327.390015 677.789978 328.530029 C 670.019958 329.219971 662.219971 328.829956 654.449951 328.800018 C 654.960022 316.230011 651.149963 300 662.789978 291.269989 Z"/>
    <path id="path7" fill="#334155" stroke="none" d="M 81 329.160004 C 94.710022 329.160004 108.390015 329.370026 122.070007 328.829956 C 121.230011 352.26004 118.620026 375.629974 117.149963 399.030029 C 115.410004 426.539978 109.170044 454.859985 92.370026 477.329956 C 84.870026 461.48996 77.850037 445.440033 70.829956 429.329956 C 72.997192 423.486053 74.330292 417.365936 74.789978 411.149963 C 76.679993 384 78.809967 356.519989 81 329.160004 Z"/>
    <path id="path8" fill="#334155" stroke="none" d="M 219.300018 329.160004 C 233.120026 329.160004 246.950012 329.160004 260.789978 329.160004 C 262.890015 356.429993 265.050018 383.699982 267.030029 410.969971 C 267.445679 417.279877 268.779694 423.4953 270.98996 429.420044 C 263.969971 445.469971 256.890015 461.48996 249.480011 477.420044 C 233.940033 456.690033 227.370026 430.769989 225.179993 405.420044 C 222.98996 380.070007 221.309967 354.539978 219.300018 329.160004 Z"/>
    <path id="path9" fill="#334155" stroke="none" d="M 270.780029 493.230011 C 277.119995 479.230011 283.519989 465.279999 289.980011 451.379974 C 311.370026 456.870026 333.570007 453.75 355.379974 454.589996 C 349.140015 468.570007 342.75 482.48996 336.329956 496.379974 C 314.519989 495.210022 292.019989 499.5 270.780029 493.230011 Z"/>
</svg>
